<svg viewBox="0 0 39 39" xmlns="http://www.w3.org/2000/svg"><path d="m19.5 3.51c5.21 0 5.82 0 7.88.12a10.65 10.65 0 0 1 3.62.67 5.88 5.88 0 0 1 2.24 1.46 6 6 0 0 1 1.46 2.24 10.89 10.89 0 0 1 .67 3.62c.1 2.06.12 2.67.12 7.88s0 5.82-.12 7.88a10.89 10.89 0 0 1 -.67 3.62 6 6 0 0 1 -1.46 2.24 5.88 5.88 0 0 1 -2.24 1.46 10.65 10.65 0 0 1 -3.62.67c-2.06.1-2.67.12-7.88.12s-5.82 0-7.88-.12a10.65 10.65 0 0 1 -3.62-.67 6.48 6.48 0 0 1 -3.7-3.7 10.65 10.65 0 0 1 -.67-3.62c-.1-2.06-.12-2.67-.12-7.88s0-5.82.12-7.88a10.65 10.65 0 0 1 .67-3.62 6.48 6.48 0 0 1 3.7-3.7 10.65 10.65 0 0 1 3.62-.67c2.06-.1 2.67-.12 7.88-.12m0-3.51c-5.3 0-6 0-8 .12a14.13 14.13 0 0 0 -4.77.88 10 10 0 0 0 -5.73 5.73 14.13 14.13 0 0 0 -.9 4.73c-.1 2.08-.1 2.74-.1 8.04s0 6 .12 8a14.13 14.13 0 0 0 .88 4.77 10 10 0 0 0 5.73 5.73 14.13 14.13 0 0 0 4.73.9c2.08.1 2.74.12 8 .12s6 0 8-.12a14.13 14.13 0 0 0 4.73-.9 10 10 0 0 0 5.81-5.73 14.13 14.13 0 0 0 .9-4.73c.1-2.08.12-2.74.12-8s0-6-.12-8a14.13 14.13 0 0 0 -.9-4.81 10 10 0 0 0 -5.73-5.73 14.13 14.13 0 0 0 -4.73-.9c-2.08-.1-2.75-.1-8.04-.1zm0 9.49a10 10 0 1 0 10 10 10 10 0 0 0 -10-10zm0 16.51a6.5 6.5 0 1 1 6.5-6.5 6.5 6.5 0 0 1 -6.5 6.5zm12.75-16.91a2.34 2.34 0 1 1 -2.34-2.34 2.34 2.34 0 0 1 2.34 2.34z" fill="#2d2d2d"/></svg>