<svg viewBox="0 0 182.52 29.59" xmlns="http://www.w3.org/2000/svg"><g fill="#4a4a4a"><path d="m42.86 3.81v1.25a6.26 6.26 0 0 1 -1.61.37v1.2h1.89v1.21h-1.89v.69l1.89 1.26v1.38l-1.89-1.36v4.06h-1.41v-3.35a8.54 8.54 0 0 1 -.84 1.13 6.35 6.35 0 0 1 -1.09 1v-1.77a4.66 4.66 0 0 0 1.21-1.38 4.6 4.6 0 0 0 .69-1.66h-1.93v-1.21h2v-1.1h-2v-1.13a31.27 31.27 0 0 0 3.22-.12 5.81 5.81 0 0 0 1.76-.47m.87.25h4.68v9.67h-4.68zm1.38 8.44h1.89v-7.21h-1.89z"/><path d="m55.81 4v1.11h-.31v2.59c0 .83-.39 1.24-1.18 1.24h-.92v-.81h-2.91v-2.46h3.13v2.07h.38a.34.34 0 0 0 .39-.38v-2.25h-4.16v-1.11zm0 5.17v1.09h-.31v2.44a1.22 1.22 0 0 1 -.3.88 1.13 1.13 0 0 1 -.83.3h-1v-.61h-2.88v-2.46h3.13v1.86h.38c.27 0 .4-.12.4-.36v-2.06h-4.17v-1.09zm-4.37-1.85h1.26v-.86h-1.26zm0 5.14h1.26v-.87h-1.26zm6.43-8.65v.47.28h3.24v1.15l-.54 2.29h-1.13l.56-2.22h-2.39a14 14 0 0 1 -.38 1.49 7.62 7.62 0 0 1 -.46 1.11h-1.3a7.71 7.71 0 0 0 .8-2.15 11 11 0 0 0 .32-2.42zm1.13 2.45v2.07a4.78 4.78 0 0 0 .56 2.31 4.45 4.45 0 0 0 1.52 1.67v1.56a5.61 5.61 0 0 1 -2.59-2.87 6 6 0 0 1 -1 1.58 6.1 6.1 0 0 1 -1.49 1.28v-1.55a4.55 4.55 0 0 0 1.44-1.78 5 5 0 0 0 .37-2v-2.27z"/><path d="m64.36 4.65v7.8h2.89v-8.64h1.47v8.64h2.92v-7.8h1.47v9.08h-10.24v-9.08z"/><path d="m43 17.56-.09.6h5.82v1.21h-6.19c-.12.25-.19.41-.23.5l-.32.51h6.25v5.82c0 .94-.51 1.41-1.54 1.41h-1.76v-.92h1.24a.55.55 0 0 0 .62-.63v-.39h-6.44v1.94h-1.43v-4.39q-.57.27-1 .45v-1.74a4.93 4.93 0 0 0 1.67-1 5.63 5.63 0 0 0 1.25-1.58h-2.97v-1.19h3.42l.1-.6zm-2.62 5h6.42v-1.12h-5.59c-.12.13-.25.27-.41.42l-.44.39zm0 2.13h6.42v-1.13h-6.44z"/><path d="m50.65 17.93h10v9.43h-10zm1.42 4.07h2.93v-2.82h-2.93zm0 4.12h2.93v-2.86h-2.93zm4.28-4.12h2.87v-2.82h-2.87zm0 4.12h2.87v-2.86h-2.87z"/><path d="m73.33 22.6a5 5 0 0 1 -1.33 3.75 4.57 4.57 0 0 1 -3.33 1.19v-1.54q3 0 3.05-3.46a3.6 3.6 0 0 0 -.82-2.54 3.49 3.49 0 0 0 -2.7-1 4.07 4.07 0 0 0 -3.14 1.12 4.14 4.14 0 0 0 -1 2.93 3.87 3.87 0 0 0 .37 1.85 1.1 1.1 0 0 0 1 .69c.53 0 1-.52 1.34-1.54a13.68 13.68 0 0 0 .59-4.48h1.51a13.53 13.53 0 0 1 -.87 5.72 2.89 2.89 0 0 1 -2.6 1.94 2.32 2.32 0 0 1 -2-1.08 5.43 5.43 0 0 1 -.75-3.09 5.47 5.47 0 0 1 1.31-3.86 5.64 5.64 0 0 1 4.33-1.57 5 5 0 0 1 3.76 1.37 4.93 4.93 0 0 1 1.28 3.59"/><path d="m85.44 4.6a23.77 23.77 0 0 1 -.44 4.5 18.31 18.31 0 0 1 -1.15 3.9h.76v13.39h-3v-10a8.93 8.93 0 0 1 -1 .94 11.06 11.06 0 0 1 -1.18.81v-4a6.69 6.69 0 0 0 2.15-3.45 19.31 19.31 0 0 0 .8-5.92v-.17h3m16.8.39v6.23h.66v2.61h-.66v6.17h-7.09a6.61 6.61 0 0 1 -2.23 4.2 10.83 10.83 0 0 1 -5.28 2.22v-3.08q3.58-.61 4.24-3.37h-5.18v-2.57h5.36v-3.57h-6v-2.61h6v-3.69h-5.36v-2.53zm-7 6.23h4.13v-3.69h-4.12zm0 6.18h4.13v-3.57h-4.12z"/><path d="m114.06 4.6v1.16h7.73v-1.16h3.06v1.16h4.81v2.36h-4.81v1.18h-3.06v-1.18h-7.73v1.23h-3.06v-1.23h-4.78v-2.36h4.78v-1.16h3.09m1.15 5.72v13.43q0 2.64-2.85 2.64h-2.17v-2.39h1.65a.85.85 0 0 0 .58-.2.64.64 0 0 0 .25-.52v-2.28h-3.06a7.89 7.89 0 0 1 -1 3 8.31 8.31 0 0 1 -2.46 2.45v-3.62a3.8 3.8 0 0 0 .77-1.51 8.5 8.5 0 0 0 .23-2.15v-8.85zm-5.49 4.29h3v-2.16h-3zm0 4.24h3v-2.11h-3zm9.64-8.94c.09.21.18.46.28.75s.18.6.27.92h1.41a7.24 7.24 0 0 0 .11-1c0-.4 0-.63 0-.68h2.49a7.36 7.36 0 0 1 -.19 1.67h1.88l.6-1.67h2.15l-.63 1.67h1.59v1.94h-4.65a13.15 13.15 0 0 0 .6 1.45h4.37v2h-3a8.6 8.6 0 0 0 1.4 1.12 5.4 5.4 0 0 0 1.56.69v2.38l-.63-.25a3 3 0 0 1 -.62-.28v.73l-3.3.82v-1.77l2-.53a13.82 13.82 0 0 1 -1.54-1.36 12.65 12.65 0 0 1 -1.28-1.57h-2.9a16.3 16.3 0 0 1 -1.36 1.46c-.45.46-1 .93-1.52 1.4l2.23.6v1.79l-3.29-.87v-.77c-.48.27-.93.49-1.36.68v-2.38a8.94 8.94 0 0 0 2.61-1.91h-2.57v-1.94h4l.68-1.45h-4.36v-1.97h1.46a7.28 7.28 0 0 0 -.21-.8 8.15 8.15 0 0 0 -.34-.87zm1.39 12.72v1.58h.22a.65.65 0 0 0 .52-.18 1.09 1.09 0 0 0 .16-.67v-5.11h2.4v5.91a2.22 2.22 0 0 1 -.55 1.74 2.42 2.42 0 0 1 -1.67.49h-1.56v-1.39a8.46 8.46 0 0 1 -1.86.79 12.07 12.07 0 0 1 -2.32.45v-2.1a7.25 7.25 0 0 0 2.44-.43 9.71 9.71 0 0 0 2.19-1.08zm1.72-7.63h.65l-.31-.75zm7.13 9v2.18l-4.63-1.49v-2.06z"/><path d="m156.42 13.64v2h-19.36v3.71h19.36v1.77h-8a6.9 6.9 0 0 0 3.13 2.21l1.72-1.46h3.06l-2.45 2.13c.37.07.78.13 1.26.2a10 10 0 0 0 1.28.09v2.11a14.49 14.49 0 0 1 -6.6-1.38 10.22 10.22 0 0 1 -4.25-3.9h-3.19v3a11.11 11.11 0 0 0 2.43-.24 12.81 12.81 0 0 0 1.94-.56v2.2a15.05 15.05 0 0 1 -3.67.65q-2.34.19-6.63.2v-2.12h2.88v-3.1h-2.41a8 8 0 0 1 -1.22 3 7 7 0 0 1 -2.7 2.24v-3.52a4.46 4.46 0 0 0 1.12-3.2v-6h22.35m-13.47-9.07v1h3.35v-1h2.92v1h6.48v6.91h-22.17v-6.94h6.5v-1zm-6.48 3.61h3.55v-1.06h-3.55zm0 2.67h3.55v-1.07h-3.55zm1.65 5.67h17.58v1.84h-17.57zm4.83-8.34h3.35v-1.06h-3.35zm0 2.67h3.35v-1.07h-3.35zm6.27-2.67h3.55v-1.06h-3.55zm0 2.67h3.55v-1.07h-3.55z"/><path d="m160.34 5h22.18v21.1h-22.18zm2.9 18.76h16.38v-16.37h-6.74v1.5h5v1.6h-5v1.24h5.85v1.6h-14.63v-1.6h5.9v-1.24h-5v-1.6h5v-1.5h-6.77zm14.53-9.21v4.34h-4.89v.11l3 1.34 1.3-1.39h1.82l-1.7 2 1.46.63v1.9l-5.85-2.65v2.28h-2.91v-2.86a9.44 9.44 0 0 1 -2.66 2 8.86 8.86 0 0 1 -3.25 1v-2a7.54 7.54 0 0 0 2.74-.76 5.48 5.48 0 0 0 1.91-1.59h-3.66v-4.36zm-10.17 3h7.66v-1.68h-7.66z"/></g><path d="m5.94 8.86 1.12 1s.21-.22.39-.37l.19-.15-.38-.72v.8a.7.7 0 0 0 .38-.08l-.38-.72v-.42l-.19 1.19h.19v-1.19l-.19 1.19.14-.9-.42.81a1.06 1.06 0 0 0 .28.09l.14-.9-.42.81.12-.23-.14.22.12-.23-.14.22a4.36 4.36 0 0 1 .47.43c.22.24.43.49.63.69l.26.32c.2.25.45.58.75.91a5.78 5.78 0 0 0 .5.48 3.11 3.11 0 0 0 .71.46 1.5 1.5 0 0 0 1.93-.57 2.27 2.27 0 0 0 .32-.81 3.34 3.34 0 0 0 .07-.68 6.49 6.49 0 0 0 -.13-1.12 6.59 6.59 0 0 0 -.29-.95c-.14-.34-.36-.79-.6-1.25-.12-.22-.25-.44-.38-.65l-.22-.32a3.24 3.24 0 0 0 -.33-.35l-.24-.22-.44.4.51-.29a.6.6 0 0 0 -.07-.11l-.44.4.51-.29-1 .58h1.13a1.14 1.14 0 0 0 -.15-.58l-1 .58h-.12l1.09.66a1.32 1.32 0 0 0 .18-.65h-1.27l1.09.65-1-.57.65.91a1.05 1.05 0 0 0 .35-.34l-1-.57.65.91-.68-1v1.25a1.27 1.27 0 0 0 .68-.21l-.68-1v.1l-.57.91a1.13 1.13 0 0 0 .57.15v-1.01l-.57.91.32-.44-.35.36.08.07.27-.43-.35.36.09.11.2.25.23.28a6.58 6.58 0 0 0 .53.53 1.51 1.51 0 0 0 1.29.35 1.5 1.5 0 0 0 1.07-.79 7.49 7.49 0 0 0 .31-.77v-.06l-.6-.26.54.42.07-.11-.61-.31.54.42-.89-.69.57 1a1.18 1.18 0 0 0 .32-.28l-.89-.69.57 1-.48-.79v.91a.88.88 0 0 0 .48-.12l-.48-.79v-.35l-.52 1a1.15 1.15 0 0 0 .52.12v-1.12l-.52 1 .5-1-.87.65a1.09 1.09 0 0 0 .37.32l.5-1-.87.65 1.1-.82h-1.37a1.48 1.48 0 0 0 .27.82l1.11-.82h-.26l-1-.52a1 1 0 0 0 -.12.52h1.12l-1-.52.19.1h-.19l.19.1-.19-.1s-.08.12-.19.31a2.3 2.3 0 0 0 -.28 1 1.8 1.8 0 0 0 .17.75l1.36-.63-1.37.61a3.3 3.3 0 0 1 .18.87c.05.31.11.54.14.71a2.24 2.24 0 0 1 .05.28h.34l-.32-.11v.11h.34l-.32-.11a1.49 1.49 0 0 0 .49 1.64 1.52 1.52 0 0 0 1.69.15 5.74 5.74 0 0 0 1.31-1c.32-.33.53-.57.69-.71a3.79 3.79 0 0 0 .59-.68c.21-.3.37-.57.45-.67l-.49-.52.34.56a.55.55 0 0 0 .15-.11l-.49-.45.34.56-.59-1v1.17a1.1 1.1 0 0 0 .59-.16l-.59-1v-.07l-.2 1.22h.21v-1.22l-.2 1.22.08-.49-.16.47h.08l.08-.49-.16.47.14.09.38-.41-.47.3.09.11.38-.41-.47.3 1-.64h-1.17a1.2 1.2 0 0 0 .18.64l1-.64h.16l-1.18-.62a1.51 1.51 0 0 0 -.16.6h1.34l-1.18-.6 1.32.72-1.31-.74.7.39-.6-.53s0 0-.1.14l.7.39-.6-.53-.2.2c-.17.15-.41.36-.65.59a7.4 7.4 0 0 0 -.73.81c-.18.25-.58.72-.94 1.23a8.14 8.14 0 0 0 -.54.81 2.92 2.92 0 0 0 -.39 1.1v.31a5.25 5.25 0 0 0 .12 1 6.23 6.23 0 0 0 .59 1.71 3.13 3.13 0 0 0 .63.84 2.15 2.15 0 0 0 1.31.61 1.49 1.49 0 0 0 1.17-.45 7 7 0 0 0 1.2-1.65c.29-.52.51-1 .65-1.25a10.57 10.57 0 0 1 .63-.88 5.45 5.45 0 0 0 .85-1.48 1.78 1.78 0 0 0 .07-.47v-.35c0-.5 0-1.25 0-2s0-1.43-.06-1.9c0-.44-.1-1.11-.15-1.72 0-.31 0-.61-.06-.84s0-.44 0-.48h-1.5l.77 1.28a1.43 1.43 0 0 1 .27-.1h.17.06v-.83l-.32.7a.7.7 0 0 0 .32.08v-.78l-.32.7.45-1.03-.84.8a1.12 1.12 0 0 0 .36.26l.48-1.06-.84.8.88-.83-1.16.37a1.17 1.17 0 0 0 .28.46l.88-.83-1.16.37.59-.19-.61.12v.07l.59-.19-.61.12s0 .18 0 .39 0 .78 0 1.2v.61a5.27 5.27 0 0 0 0 .56l1.49-.19-1.35.16s0 .27 0 .53 0 .81 0 1.28 0 .85 0 1.24a5.25 5.25 0 0 0 0 .57 2.64 2.64 0 0 0 .15.64 1.48 1.48 0 0 0 1.17 1 1.62 1.62 0 0 1 .37.09l.23.07a2.12 2.12 0 0 0 1.08 0 2.31 2.31 0 0 0 .38-.15 3 3 0 0 0 .74-.49c.28-.24.51-.47.71-.66a2.37 2.37 0 0 1 .24-.23h.07l-.16-.23.14.24-.16-.23.14.24c.61-.38 1-.67 1.14-.73l-.49-1.47-.62 1.37c.39.17.7.26.8.3l.17-.38-.21.35.21-.35-.21.35.55-.93-.85.66a1.14 1.14 0 0 0 .3.27l.55-.93-.85.66 1-.79h-1.26a1.35 1.35 0 0 0 .26.79l1-.79h-.1l-1.05-.58a1.23 1.23 0 0 0 -.14.58h1.19l-1.05-.58 1.31.74-1.3-.73.74.42-.57-.65a.74.74 0 0 0 -.17.23l.74.42-.57-.65c-.05 0-.17.12-.33.21s-.53.31-.83.52a4.61 4.61 0 0 0 -.48.36 2.2 2.2 0 0 0 -.54.69 1.52 1.52 0 0 0 .79 2.05 13.7 13.7 0 0 0 2.9.76c.53.09 1.09.12 1.53.17a4 4 0 0 1 .48.07h.05l.27-.86-.59.66a.92.92 0 0 0 .32.2l.27-.86-.59.66.3-.25-.35.18.05.07.3-.25-.35.18 1-.51h-1.07a1.29 1.29 0 0 0 .11.51l1-.51h.24l-1.21-.54a1.32 1.32 0 0 0 -.14.59h1.34l-1.2-.59 1.19.59-.51-1.23a1.29 1.29 0 0 0 -.68.64l1.19.59-.51-1.23.39.94v-1a1 1 0 0 0 -.39.09l.39.94v-.66-.37.37-.37l-.61-.08-1.7-.28-.83-.12a6.15 6.15 0 0 0 -.74-.06h-.13l.12 1.49v-1.53h-.93a8.66 8.66 0 0 0 -1.37.1 4.37 4.37 0 0 0 -1.58.54 6.73 6.73 0 0 0 -1 .73 16.1 16.1 0 0 0 -1.37 1.37 8.76 8.76 0 0 0 -.57.7 5.2 5.2 0 0 0 -.45.7c-.16.32-.46.84-.73 1.4-.14.28-.28.57-.4.87a5.39 5.39 0 0 0 -.3 1 6.27 6.27 0 0 0 -.07.64c0 .7-.06 1.74-.06 2.8v2 .8a6.47 6.47 0 0 0 .07.65 6 6 0 0 1 .07.76c0 .58.06 1.34.09 2 0 .33 0 .65.05.92s0 .27 0 .4 0 .24.08.42l1.45-.4v-1.5a12.27 12.27 0 0 1 -1.4-.1c-.48 0-.92-.12-1.21-.16a3.84 3.84 0 0 0 -.5 0h-.6c-.43 0-.9 0-1.36.06-.23 0-.45.05-.68.1a3 3 0 0 0 -.76.25l.84 1.23 1.5.11c0-.3 0-.8.07-1.45.07-1.95.16-5 .16-6 0-.36 0-.85.08-1.38s.08-1.13.08-1.72a7 7 0 0 0 -.11-1.36 9.14 9.14 0 0 0 -.84-2.33 19.65 19.65 0 0 0 -1.2-2.06 14.39 14.39 0 0 0 -.9-1.2c-1.05-1.28-2.42-2.76-2.47-2.77l-1.1 1 1.12 1-1.12-1-1.1 1 .38.42c.35.39.9 1 1.42 1.62a17.53 17.53 0 0 1 1.22 1.55 17.54 17.54 0 0 1 1 1.74 6.63 6.63 0 0 1 .59 1.56 4.32 4.32 0 0 1 .06.81c0 .44 0 1-.07 1.49s-.09 1.08-.09 1.61 0 2.16-.08 3.71c0 .77 0 1.54-.08 2.18s0 1.15-.06 1.36a1.51 1.51 0 0 0 2.18 1.44l-.25-.48.16.52h.09l-.25-.48.16.52a3.51 3.51 0 0 1 .57-.08h.95.47.25l1.25.16a16 16 0 0 0 1.74.12 1.51 1.51 0 0 0 1.45-1.9l-.63.17.64-.13-.63.17.64-.13c0-.08 0-.38-.06-.74 0-.54-.06-1.23-.09-1.88 0-.32 0-.63-.05-.91a6 6 0 0 0 -.09-.77s0-.17 0-.35c0-.57-.05-1.57-.05-2.55 0-.68 0-1.36 0-1.9 0-.27 0-.51 0-.7s0-.16 0-.22v-.08a4 4 0 0 1 .13-.4c.12-.29.3-.65.48-1l.54-1a3 3 0 0 1 .31-.45 11 11 0 0 1 1-1.1 6.25 6.25 0 0 1 .92-.76 1.56 1.56 0 0 1 .51-.15 6.17 6.17 0 0 1 .9-.06h.91.13l-.12-1.47v1.47h.12l-.12-1.47v1.47h.06l.75.1c.5.07 1.12.18 1.66.27l.75.11a4.48 4.48 0 0 0 .65.06 1.91 1.91 0 0 0 1.08-.32 1.59 1.59 0 0 0 .54-.63 1.64 1.64 0 0 0 .17-.73 1.76 1.76 0 0 0 -.15-.72 2.44 2.44 0 0 0 -.35-.57 3.39 3.39 0 0 0 -.36-.39 2.09 2.09 0 0 0 -.62-.36 3.74 3.74 0 0 0 -.77-.19c-.35-.06-.7-.09-1-.12l-.82-.09a10.6 10.6 0 0 1 -2.25-.58l-.57 1.39 1.36.65-.75-.36.59.59a.64.64 0 0 0 .16-.23l-.75-.36.59.59-.06-.06.05.07-.06-.06.05.07.26-.18.8-.5a4.93 4.93 0 0 0 .47-.32 2.2 2.2 0 0 0 .56-.64 1.88 1.88 0 0 0 .23-.86 1.67 1.67 0 0 0 -.23-.84 1.9 1.9 0 0 0 -.71-.7 3.71 3.71 0 0 0 -.58-.37l-.39-.15a1.55 1.55 0 0 0 -1.23 0 12.06 12.06 0 0 0 -1.44.89 3.34 3.34 0 0 0 -.62.48c-.25.23-.47.46-.65.62l-.2.18.27.43-.2-.46h-.07l.27.43-.2-.46.08.19-.06-.2.08.19-.06-.2.31.9v-1a1.05 1.05 0 0 0 -.31.05l.31.9.26-.95a.79.79 0 0 0 -.26 0v1l.26-.95a2.57 2.57 0 0 0 -.32-.1 3.49 3.49 0 0 0 -.62-.13l-.23 1.48 1.41-.52-.49.18.51-.11v-.07l-.49.18.51-.11a4.13 4.13 0 0 1 0-.52c0-.28 0-.62 0-1s0-.89 0-1.28c0-.17 0-.32 0-.46s0-.27 0-.42 0-.24 0-.49 0-.88 0-1.34c0-.23 0-.46 0-.68a3.53 3.53 0 0 0 -.43-.61l-1.43.47 1.43-.45a1.84 1.84 0 0 0 -.4-.69 2 2 0 0 0 -.84-.51 2.46 2.46 0 0 0 -.66-.09 4 4 0 0 0 -1.1.19 4.65 4.65 0 0 0 -.91.4 1.51 1.51 0 0 0 -.75 1.3v.66c.05.78.15 2 .21 2.64 0 .31 0 1 .05 1.71s0 1.45 0 1.94v.35h1.5l-1.38-.5a3.24 3.24 0 0 1 -.4.62 11.15 11.15 0 0 0 -.85 1.21c-.23.43-.43.86-.66 1.27a4.27 4.27 0 0 1 -.67 1l1 1.07.12-1.49-.07.89.49-.75a.73.73 0 0 0 -.42-.14l-.07.89.49-.75-.22.34.31-.27-.09-.07-.22.34.31-.27a2.45 2.45 0 0 1 -.28-.63 3.46 3.46 0 0 1 -.11-.47.79.79 0 0 1 0-.26h-.46l.45.05v-.05h-.46l.45.05-.68-.09.66.19v-.1l-.68-.09.66.19h-.17l.17.07h-.17l.17.07a4.78 4.78 0 0 1 .51-.79c.27-.36.58-.73.82-1a6.59 6.59 0 0 1 .72-.73l.46-.43.23-.23a2.22 2.22 0 0 0 .28-.39 1.63 1.63 0 0 0 .26-1.05 1.82 1.82 0 0 0 -.17-.76 2.35 2.35 0 0 0 -.49-.66 3.47 3.47 0 0 0 -.75-.54 3 3 0 0 0 -.94-.33h-.27a1.88 1.88 0 0 0 -.88.29 2.62 2.62 0 0 0 -.72.63c-.22.29-.37.53-.5.72l-.15.22-.05.06c-.37.34-.61.63-.83.85a3 3 0 0 1 -.65.52l.74 1.3 1.43.46a2.74 2.74 0 0 0 .12-.81 4.1 4.1 0 0 0 -.13-.95c0-.23-.09-.4-.1-.5a6.16 6.16 0 0 0 -.42-1.69l-1.1.52h1.21a1.35 1.35 0 0 0 -.11-.52l-1.1.52h.26l.88.39a1 1 0 0 0 .07-.39h-.95l.88.39-.23-.1.22.11-.23-.1.22.11.14-.25a1.87 1.87 0 0 0 .16-.32 1.77 1.77 0 0 0 .13-.67 1.66 1.66 0 0 0 -.31-1 2 2 0 0 0 -.66-.5 1.94 1.94 0 0 0 -.86-.21 2.15 2.15 0 0 0 -1.07.31 2 2 0 0 0 -.67.68 3.23 3.23 0 0 0 -.29.66c-.06.17-.11.29-.15.38l1.35.65 1-1.12a1 1 0 0 1 -.2-.2 2.69 2.69 0 0 0 -.25-.31l-.13-.17a4.19 4.19 0 0 0 -.49-.52 2.59 2.59 0 0 0 -.49-.33 1.92 1.92 0 0 0 -.83-.19 1.8 1.8 0 0 0 -1.07.35l.88 1.22-.87-1.27a2 2 0 0 0 -.53.57 1.73 1.73 0 0 0 -.25.89 1.76 1.76 0 0 0 .25.91 3.07 3.07 0 0 0 .47.59l.3.26.58-.57-.59.52.07.06.52-.58-.59.52.2-.18-.2.17.2-.18-.2.17.14.22a11.78 11.78 0 0 1 .67 1.32 2.51 2.51 0 0 1 .13.41 3.78 3.78 0 0 1 .06.49v.07l.6.1-.5-.32a.7.7 0 0 0 -.1.22l.6.1-.5-.32 1.26.82.61-1.37-.18.39.22-.37-.18.39.22-.37v.08-.08.08-.08a3.37 3.37 0 0 1 -.54-.57c-.13-.15-.25-.31-.37-.46l-.39-.47c-.14-.15-.47-.54-.83-.9a7.13 7.13 0 0 0 -.63-.56 2.33 2.33 0 0 0 -.42-.26 1.75 1.75 0 0 0 -.66-.22l-.32 1.49.24-1.48a1.52 1.52 0 0 0 -.28 0 2 2 0 0 0 -.73.14 3.06 3.06 0 0 0 -.73.43 6.52 6.52 0 0 0 -1 .9 1.49 1.49 0 0 0 0 2l1.1-1" fill="#fff"/><path d="m9.48 15.94h-1.48a1.91 1.91 0 0 1 -.67 1.4 2.76 2.76 0 0 1 -1.84.66 2.72 2.72 0 0 1 -1.82-.66 1.87 1.87 0 0 1 -.67-1.34h-1.49l1.49.06a1.36 1.36 0 0 0 0-.15l-1.49.09 1.49.06-1.5-.12 1.39.56a1.14 1.14 0 0 0 .1-.44l-1.49-.12 1.39.56a1.49 1.49 0 0 0 .1-.72l-1.46.16h1.47a.79.79 0 0 0 0-.16l-1.46.16h1.46a1.87 1.87 0 0 1 .66-1.39 2.77 2.77 0 0 1 1.83-.66 2.76 2.76 0 0 1 1.82.66 1.9 1.9 0 0 1 .69 1.39h3a4.86 4.86 0 0 0 -1.7-3.63 5.72 5.72 0 0 0 -3.81-1.42 5.73 5.73 0 0 0 -3.82 1.42 4.89 4.89 0 0 0 -1.67 3.63 1 1 0 0 0 0 .17l1.49-.17-1.38-.55a1.37 1.37 0 0 0 -.11.51v.1h1.28-1.28 1.28-1.28 1.47-1.47 1.47-1.47a4.89 4.89 0 0 0 1.67 3.63 5.73 5.73 0 0 0 3.82 1.37 5.72 5.72 0 0 0 3.81-1.42 4.87 4.87 0 0 0 1.7-3.64z" fill="#fff"/><path d="m10.64 22.47h-1.5a.88.88 0 0 1 -.32.63 1.49 1.49 0 0 1 -1.92 0 .88.88 0 0 1 -.32-.63.87.87 0 0 1 .31-.63 1.39 1.39 0 0 1 1-.34 1.38 1.38 0 0 1 1 .34.88.88 0 0 1 .32.63h3a3.86 3.86 0 0 0 -1.32-2.87 4.44 4.44 0 0 0 -3-1.1 4.42 4.42 0 0 0 -3 1.1 3.78 3.78 0 0 0 0 5.74 4.5 4.5 0 0 0 5.92 0 3.89 3.89 0 0 0 1.32-2.87h-1.5" fill="#fff"/><path d="m24.41 4h-1.5a.83.83 0 0 1 -.31.62 1.51 1.51 0 0 1 -1.93 0 .81.81 0 0 1 -.31-.62.83.83 0 0 1 .31-.63 1.51 1.51 0 0 1 1.93 0 .83.83 0 0 1 .31.63h3a3.85 3.85 0 0 0 -1.31-2.89 4.52 4.52 0 0 0 -5.93 0 3.85 3.85 0 0 0 -1.31 2.89 3.85 3.85 0 0 0 1.31 2.86 4.52 4.52 0 0 0 5.93 0 3.85 3.85 0 0 0 1.31-2.86z" fill="#fff"/><path d="m9.05 6.16.86 1.22-.67-1v1.21a1.16 1.16 0 0 0 .67-.21l-.67-1v.1l-.56.91a1 1 0 0 0 .56.15v-1.01l-.56.91.26-.44-.35.37.09.06.26-.43-.35.37.09.1.2.25.23.28a6.58 6.58 0 0 0 .53.53 1.51 1.51 0 0 0 1.29.35 1.5 1.5 0 0 0 1.07-.79c.16-.35.26-.64.31-.77v-.06l-.19-.09.18.11-.19-.09.18.11-.91-.51.52.89a1 1 0 0 0 .39-.38l-.91-.51.52.89-.48-.79v.91a.88.88 0 0 0 .58-.16l-.48-.79v-.23l-.53 1a1.31 1.31 0 0 0 .53.12v-1.12l-.53 1 .5-1-.88.65a1.26 1.26 0 0 0 .38.32l.5-1-.88.65 1.1-.81h-1.42a1.45 1.45 0 0 0 .27.81l1.1-.81h-.25l-1-.51a.92.92 0 0 0 -.12.51h1.12l-1-.51.2.1-.2-.02.2.1-.2-.1s-.08.12-.19.31a2.3 2.3 0 0 0 -.28 1 1.8 1.8 0 0 0 .17.75l1.36-.63-1.37.61a3.3 3.3 0 0 1 .18.87c.07.46.17.78.18.93a1.51 1.51 0 0 0 1.14 1.25 5 5 0 0 0 .93.15 1.46 1.46 0 0 0 1.09-.38c.52-.46.83-.86 1.05-1.05l-1-1.11 1 1.13a3.86 3.86 0 0 0 .6-.69c.21-.3.37-.57.45-.67l-.48-.47.34.56a.55.55 0 0 0 .15-.11l-.49-.45.34.56-.59-1v1.17a1.1 1.1 0 0 0 .59-.16l-.59-1v-.07l-.2 1.22h.21v-1.22l-.2 1.22.08-.49-.16.47h.08l.08-.49-.16.47.14.09.38-.41-.47.3.09.11.38-.41-.47.3 1-.64h-1.17a1.2 1.2 0 0 0 .18.64l1-.64h.16l-1.18-.62a1.51 1.51 0 0 0 -.16.6h1.34l-1.18-.6.78.43-.68-.58a.62.62 0 0 0 -.1.15l.78.43-.68-.58h.05-.05.05-.05s-.21.2-.42.4-.48.44-.74.71a1.5 1.5 0 0 0 1.71 2.4 5.27 5.27 0 0 0 2.18-1.76 4.7 4.7 0 0 0 .88-2.73 4.89 4.89 0 0 0 -1.67-3.68 5.85 5.85 0 0 0 -7.63 0 4.87 4.87 0 0 0 -1.67 3.61 1.49 1.49 0 0 0 .91 1.39 1.53 1.53 0 0 0 1.64-.31l-1-1.07.86 1.22-.86-1.27-1.05-1.07 1 1.12h1.5a1.87 1.87 0 0 1 .67-1.39 2.69 2.69 0 0 1 1.83-.65 2.74 2.74 0 0 1 1.82.66 1.87 1.87 0 0 1 .67 1.39 1.8 1.8 0 0 1 -.33 1 2.4 2.4 0 0 1 -1 .78l.63 1.36 1.08 1c.2-.2.47-.45.72-.68l.41-.29.19-.21a2.06 2.06 0 0 0 .24-.34 1.63 1.63 0 0 0 .17-.84 1.82 1.82 0 0 0 -.17-.76 2.35 2.35 0 0 0 -.49-.66 3.47 3.47 0 0 0 -.75-.54 3 3 0 0 0 -.94-.33h-.27a1.88 1.88 0 0 0 -.88.29 2.47 2.47 0 0 0 -.72.64c-.22.28-.37.52-.5.71l-.15.22-.05.06c-.49.44-.76.8-1 1l1 1.12.1-1.5a1.82 1.82 0 0 1 -.43-.07l-.35 1.47 1.49-.2c-.07-.46-.17-.77-.19-.94a6.25 6.25 0 0 0 -.42-1.69l-1.1.51h1.21a1.27 1.27 0 0 0 -.11-.51l-1.1.51h.22l.89.39a1 1 0 0 0 .07-.39h-.96l.89.39-.23-.1.22.12-.23-.1.22.12s.05-.09.14-.24a1.87 1.87 0 0 0 .16-.32 1.77 1.77 0 0 0 .13-.67 1.65 1.65 0 0 0 -.31-1 1.87 1.87 0 0 0 -1.5-.77 2.17 2.17 0 0 0 -1.09.32l.79 1.28-.76-1.29a1.87 1.87 0 0 0 -.68.67 4.59 4.59 0 0 0 -.3.67 2.72 2.72 0 0 1 -.15.38l1.36.65 1-1.12a1 1 0 0 1 -.2-.2s-.09-.13-.25-.31a5.38 5.38 0 0 0 -.42-.49 2.54 2.54 0 0 0 -.5-.42 1.85 1.85 0 0 0 -2.08 0l-.21.19z" fill="#fff"/><path d="m9.42 7 1-1.12-.19-.17-.34.29.33-.25-.33.25.33-.25a1.5 1.5 0 0 0 -2.68 1.1 5 5 0 0 0 2.16 3.42 1.5 1.5 0 0 0 2.23-1.82c-.14-.33-.36-.79-.6-1.24-.12-.22-.25-.44-.38-.65l-.22-.31a3.24 3.24 0 0 0 -.33-.35l-.98 1.1 1-1.12-1 1.12-1 1.13.58-.56-.59.53.07.07.52-.6-.59.53.24-.21-.25.21.24-.21-.25.21a6.45 6.45 0 0 1 .41.69c.16.3.31.63.39.82l1.36-.61.85-1.2a2 2 0 0 1 -.89-1.35l-1.51.2-1.19.91a3.49 3.49 0 0 0 .58.59z" fill="#fff"/><path d="m25.08 11.45.25-1.45-1.07-.2a7.31 7.31 0 0 0 -.91-.08h-.9a8.47 8.47 0 0 0 -1.65.14 1.57 1.57 0 0 0 -.35.11 5.39 5.39 0 0 0 -2.11 1.79 4.79 4.79 0 0 0 -.86 2.71 4.86 4.86 0 0 0 1.68 3.63 5.72 5.72 0 0 0 3.84 1.41v-1.45l-.15 1.45h.15v-1.45l-.15 1.45h.15v-1.31 1.31-1.31 1.31a5.67 5.67 0 0 0 3.81-1.42 4.87 4.87 0 0 0 1.67-3.63h-1.48l1.43.38a1.92 1.92 0 0 0 .05-.38h-1.48l1.43.38a1.58 1.58 0 0 0 .05-.38 4.74 4.74 0 0 0 -.75-2.55 5.34 5.34 0 0 0 -1.89-1.77 1.51 1.51 0 0 0 -.49-.17l-.25 1.48-.73 1.31a2.36 2.36 0 0 1 .83.76 1.75 1.75 0 0 1 .28.94h1.52l-1.45-.38a1.36 1.36 0 0 0 -.05.38 1.87 1.87 0 0 1 -.67 1.39 2.65 2.65 0 0 1 -1.81.66v1.33-1.33 1.33.16l.14-1.49h-.16v1.41-1.41 1.41-1.41a2.69 2.69 0 0 1 -1.82-.66 1.9 1.9 0 0 1 -.67-1.39 1.81 1.81 0 0 1 .33-1 2.36 2.36 0 0 1 .94-.78l-.65-1.35.3 1.47a4.87 4.87 0 0 1 1.05-.08h.94c.21 0 .83.1 1.45.21l.24-1.48-.73 1.31.73-1.31" fill="#fff"/><path d="m5.94 8.86s.91-1 1.36-.95 1.29 1.09 1.7 1.49 1.1 1.6 1.71 1.82a3.08 3.08 0 0 0 -.15-2.16 8.65 8.65 0 0 0 -1.14-2.06c-.3-.27-.75-.61-.37-.88s.75.33 1 .61a4.23 4.23 0 0 0 .61.67c.22-.47.3-1 .53-1.08a.41.41 0 0 1 .6.07c.15.2-.46.67-.3 1a4.64 4.64 0 0 1 .3 1.28 3.67 3.67 0 0 1 .15 1.55 9.06 9.06 0 0 0 1.74-1.55c.53-.47.91-1.55 1.37-1.48s1.2.6 1 .88-1.13 1-1.59 1.62a9.07 9.07 0 0 0 -1.59 2.42c-.07.61.46 2.71 1.29 2.77a10.6 10.6 0 0 0 1.59-2.56 15.55 15.55 0 0 0 1.36-2.1c0-.74 0-3.23-.07-4.11s-.23-2.7-.23-3.17c.46-.27 1.59-.61 1.74-.14s.08 2.36.16 3a34.24 34.24 0 0 0 .14 3.92c.84.13.76.33 1.22.13s1.13-1.08 1.59-1.35a12 12 0 0 1 1.34-.79c.59.27 1.28.34 1.05.74s-1.74 1-2 1.49a12.43 12.43 0 0 0 2.58.67 9.9 9.9 0 0 1 2.5.41c.3.27.6.74.07.74s-3.18-.54-3.86-.54a6.39 6.39 0 0 0 -3.1.41 10.49 10.49 0 0 0 -2.8 2.9 13.57 13.57 0 0 0 -1.29 2.83 44.86 44.86 0 0 0 0 6.35c.15.81.15 3.84.3 4.38a23.07 23.07 0 0 1 -2.8-.27 9.12 9.12 0 0 0 -3 .2c.08-1 .23-6.14.23-7.35a26.66 26.66 0 0 0 .08-4.19 12.06 12.06 0 0 0 -1.82-3.85c-.76-1.14-3.18-3.77-3.18-3.77" fill="#0b6a3f"/><path d="m9.48 15.94a3.81 3.81 0 0 1 -4 3.56 3.79 3.79 0 0 1 -4-3.56 3.79 3.79 0 0 1 4-3.55 3.8 3.8 0 0 1 4 3.55" fill="#f19625"/><path d="m9.48 15.94h-.25a3.16 3.16 0 0 1 -1.09 2.33 4 4 0 0 1 -2.65 1 4 4 0 0 1 -2.66-1 3.11 3.11 0 0 1 -1.08-2.27h-.24l.22.09v-.1h-.22l.22.09v-.06-.06h-.22.22-.22.22a3.11 3.11 0 0 1 1.08-2.32 4 4 0 0 1 2.66-1 4 4 0 0 1 2.65 1 3.16 3.16 0 0 1 1.09 2.32h.5a4.05 4.05 0 0 0 -4.24-3.8 4.5 4.5 0 0 0 -3 1.1 3.61 3.61 0 0 0 -1.25 2.7h.25l-.23-.09v.09a3.59 3.59 0 0 0 1.26 2.68 4.46 4.46 0 0 0 3 1.11 4.06 4.06 0 0 0 4.24-3.81z" fill="#f19625"/><path d="m10.64 22.47a2.65 2.65 0 0 1 -2.78 2.53 2.65 2.65 0 0 1 -2.78-2.48 2.63 2.63 0 0 1 2.78-2.52 2.64 2.64 0 0 1 2.78 2.47" fill="#fee037"/><path d="m24.41 4a2.64 2.64 0 0 1 -2.77 2.47 2.64 2.64 0 0 1 -2.78-2.47 2.64 2.64 0 0 1 2.78-2.5 2.64 2.64 0 0 1 2.77 2.5" fill="#f4aa28"/><path d="m24.41 4h-.25a2.08 2.08 0 0 1 -.73 1.56 2.77 2.77 0 0 1 -3.59 0 2 2 0 0 1 0-3.13 2.77 2.77 0 0 1 3.59 0 2.09 2.09 0 0 1 .73 1.57h.5a2.89 2.89 0 0 0 -3-2.73 2.89 2.89 0 0 0 -3 2.73 2.88 2.88 0 0 0 3 2.72 2.88 2.88 0 0 0 3-2.72z" fill="#f4aa28"/><path d="m9.05 6.16c.37-.27.75.33 1 .6a3.18 3.18 0 0 0 .61.68c.22-.47.3-1 .53-1.08a.41.41 0 0 1 .6.07c.15.2-.46.67-.3 1a4.64 4.64 0 0 1 .3 1.28c0 .32.14.63.18.93a3 3 0 0 0 .68.11c.39-.35.68-.72 1-1 .53-.47.91-1.55 1.37-1.48s1.2.6 1 .88-.79.75-1.28 1.26a3.54 3.54 0 0 0 2.26-3.19 3.79 3.79 0 0 0 -4-3.55 3.79 3.79 0 0 0 -4 3.54h.05" fill="#f9bc2c"/><path d="m9.42 7a2.87 2.87 0 0 1 -.42-.35 3.5 3.5 0 0 0 1.55 2.35 8.43 8.43 0 0 0 -1.13-2" fill="#f9bc2c"/><path d="m25.08 11.45a15.14 15.14 0 0 0 -1.73-.23 10.81 10.81 0 0 0 -2.25.1 3.55 3.55 0 0 0 -2.1 3.14 3.79 3.79 0 0 0 4 3.54 3.78 3.78 0 0 0 4-3.55 3.48 3.48 0 0 0 -1.88-3" fill="#f19625"/><path d="m25.08 11.45v-.25a14.77 14.77 0 0 0 -1.73-.2h-.9a7.67 7.67 0 0 0 -1.4.11h-.05a3.8 3.8 0 0 0 -2.26 3.37 4 4 0 0 0 4.26 3.78v-.21.21-.21.21a4.49 4.49 0 0 0 3-1.1 3.6 3.6 0 0 0 1.25-2.7h-.25l.22.06v-.06h-.22l.22.06v-.06a3.72 3.72 0 0 0 -2-3.23h-.05v.25l-.12.22a3.22 3.22 0 0 1 1.75 2.79h.2l-.24-.06v.06a3.13 3.13 0 0 1 -1.08 2.33 4 4 0 0 1 -2.65 1v.18-.25a3.93 3.93 0 0 1 -2.65-1 3.16 3.16 0 0 1 -1.09-2.32 3.31 3.31 0 0 1 2-2.92l-.11-.22v.24a7.19 7.19 0 0 1 1.3-.1h.9a15.55 15.55 0 0 1 1.69.22v-.24l-.12.22.12-.22" fill="#f19625"/></svg>