<svg height="11.09" viewBox="0 0 78.812 11.09" width="78.812" xmlns="http://www.w3.org/2000/svg"><path d="m359.943 1226.14a4.842 4.842 0 0 0 2.128-.42 2.946 2.946 0 0 0 1.288-1.12 3.032 3.032 0 0 0 .424-1.6 2.685 2.685 0 0 0 -.424-1.54 3.411 3.411 0 0 0 -1.032-1.02 14.771 14.771 0 0 0 -1.584-.85c-.533-.25-.954-.47-1.264-.65a2.823 2.823 0 0 1 -.776-.68 1.488 1.488 0 0 1 -.312-.96 1.3 1.3 0 0 1 .44-1.04 1.855 1.855 0 0 1 1.208-.36 1.532 1.532 0 0 1 1.2.48 3.629 3.629 0 0 1 .656 1.76 2.575 2.575 0 0 0 1.168-.21 17.249 17.249 0 0 1 -.1-2.19 4.147 4.147 0 0 0 -1.248-.51 6.6 6.6 0 0 0 -1.6-.2 3.682 3.682 0 0 0 -2.48.79 2.713 2.713 0 0 0 -.928 2.2 2.989 2.989 0 0 0 .424 1.64 3.505 3.505 0 0 0 1.032 1.04 11.008 11.008 0 0 0 1.584.84c.5.24.9.44 1.2.62a2.578 2.578 0 0 1 .744.65 1.433 1.433 0 0 1 .3.91 1.379 1.379 0 0 1 -.472 1.08 2.1 2.1 0 0 1 -1.432.42 2.02 2.02 0 0 1 -1.664-.62 3.467 3.467 0 0 1 -.592-1.98 4.77 4.77 0 0 0 -1.168.12 14.27 14.27 0 0 1 -.16 2.4 8.67 8.67 0 0 0 1.664.75 6.164 6.164 0 0 0 1.776.25zm14.128 0a6.078 6.078 0 0 0 2.128-.35 6.537 6.537 0 0 0 1.808-1.05 1.369 1.369 0 0 0 -.128-.32 1.172 1.172 0 0 0 -.208-.27 5.882 5.882 0 0 1 -1.408.64 4.914 4.914 0 0 1 -1.44.23 3.414 3.414 0 0 1 -2.064-.64 4.017 4.017 0 0 1 -1.312-1.76 6.789 6.789 0 0 1 -.448-2.53 5.245 5.245 0 0 1 .832-3.03 2.869 2.869 0 0 1 2.544-1.21 2.1 2.1 0 0 1 1.608.58 3.114 3.114 0 0 1 .584 2.07 2.543 2.543 0 0 0 1.056-.16 13.806 13.806 0 0 1 .176-2.48 9.666 9.666 0 0 0 -1.736-.62 7.522 7.522 0 0 0 -1.8-.21 5.753 5.753 0 0 0 -2.656.63 4.8 4.8 0 0 0 -1.984 1.86 5.7 5.7 0 0 0 -.752 3 6.274 6.274 0 0 0 .656 2.91 4.784 4.784 0 0 0 1.84 1.99 5.1 5.1 0 0 0 2.7.72zm17.3-2.4c-.48-.85-.845-1.44-1.1-1.8a5.722 5.722 0 0 0 -.936-1 3.729 3.729 0 0 0 1.9-1.09 2.813 2.813 0 0 0 .7-1.94 2.515 2.515 0 0 0 -.92-2.01 4.152 4.152 0 0 0 -2.712-.77q-.56 0-1.584.03l-1.264.02c-1.035 0-1.749-.02-2.144-.05a3.407 3.407 0 0 0 .08.83 1.634 1.634 0 0 1 .68.14.748.748 0 0 1 .328.44 3.362 3.362 0 0 1 .1.92v6.23a3.233 3.233 0 0 1 -.1.91.709.709 0 0 1 -.32.43 1.536 1.536 0 0 1 -.672.16 2.861 2.861 0 0 0 -.1.85c.544-.03 1.237-.05 2.08-.05.981 0 1.7.02 2.144.05a3.209 3.209 0 0 0 -.08-.85 1.334 1.334 0 0 1 -.608-.14.749.749 0 0 1 -.3-.45 3.764 3.764 0 0 1 -.088-.94v-2.37l.464.01.5-.01a7.023 7.023 0 0 1 .96 1.12 14.615 14.615 0 0 1 .816 1.42c.043.1.165.36.368.79s.469.94.8 1.52a19.669 19.669 0 0 1 2.816-.15 3 3 0 0 0 .1-.85 2.409 2.409 0 0 1 -.816-.16 1.389 1.389 0 0 1 -.536-.4 6.571 6.571 0 0 1 -.552-.84zm-4.912-3.35v-4.29a4.829 4.829 0 0 1 1.04-.12 2.508 2.508 0 0 1 1.784.56 2.129 2.129 0 0 1 .584 1.6 2.029 2.029 0 0 1 -.776 1.72 3.216 3.216 0 0 1 -1.992.58 5.842 5.842 0 0 1 -.64-.05zm16.9 5.75a5.28 5.28 0 0 0 2.784-.74 5.137 5.137 0 0 0 1.9-2.02 6.124 6.124 0 0 0 .68-2.89 5.8 5.8 0 0 0 -.68-2.85 4.863 4.863 0 0 0 -1.9-1.92 5.553 5.553 0 0 0 -2.776-.69 5.353 5.353 0 0 0 -2.736.7 4.974 4.974 0 0 0 -1.912 1.94 5.8 5.8 0 0 0 -.7 2.88 6.068 6.068 0 0 0 .664 2.87 4.934 4.934 0 0 0 1.872 2 5.378 5.378 0 0 0 2.808.72zm.288-.92a2.779 2.779 0 0 1 -1.9-.7 4.415 4.415 0 0 1 -1.216-1.86 7.477 7.477 0 0 1 -.416-2.52 6.071 6.071 0 0 1 .376-2.23 3.392 3.392 0 0 1 1.048-1.48 2.46 2.46 0 0 1 1.52-.52 2.805 2.805 0 0 1 1.84.67 4.318 4.318 0 0 1 1.272 1.8 6.639 6.639 0 0 1 .456 2.51 6.48 6.48 0 0 1 -.36 2.23 3.482 3.482 0 0 1 -1.032 1.54 2.363 2.363 0 0 1 -1.584.56zm14.96-.08h-.144a2.2 2.2 0 0 1 -.872-.13.761.761 0 0 1 -.408-.47 3.39 3.39 0 0 1 -.112-1v-6.04a3.265 3.265 0 0 1 .1-.92.7.7 0 0 1 .32-.44 1.536 1.536 0 0 1 .672-.16 2.816 2.816 0 0 0 .1-.85c-.64.03-1.365.05-2.176.05-.725 0-1.445-.02-2.16-.05a3.477 3.477 0 0 0 .08.85 1.6 1.6 0 0 1 .68.16.7.7 0 0 1 .328.43 3.122 3.122 0 0 1 .1.89v6.1a3.94 3.94 0 0 1 -.1 1 .707.707 0 0 1 -.328.47 1.6 1.6 0 0 1 -.68.16 2.685 2.685 0 0 0 -.1.85c.789-.03 2.245-.05 4.368-.05q1.985 0 3.392.03a12.738 12.738 0 0 1 .5-2.51 1.738 1.738 0 0 0 -.96-.43 4.923 4.923 0 0 1 -.552 1.23 1.689 1.689 0 0 1 -.776.63 3.208 3.208 0 0 1 -1.264.2zm13.168 0h-.144a2.2 2.2 0 0 1 -.872-.13.755.755 0 0 1 -.408-.47 3.39 3.39 0 0 1 -.112-1v-6.04a3.265 3.265 0 0 1 .1-.92.7.7 0 0 1 .32-.44 1.536 1.536 0 0 1 .672-.16 2.816 2.816 0 0 0 .1-.85c-.64.03-1.366.05-2.176.05-.726 0-1.446-.02-2.16-.05a3.427 3.427 0 0 0 .08.85 1.6 1.6 0 0 1 .68.16.7.7 0 0 1 .328.43 3.122 3.122 0 0 1 .1.89v6.1a3.94 3.94 0 0 1 -.1 1 .71.71 0 0 1 -.328.47 1.6 1.6 0 0 1 -.68.16 2.685 2.685 0 0 0 -.1.85c.789-.03 2.245-.05 4.368-.05q1.983 0 3.392.03a12.665 12.665 0 0 1 .5-2.51 1.745 1.745 0 0 0 -.96-.43 4.923 4.923 0 0 1 -.552 1.23 1.694 1.694 0 0 1 -.776.63 3.212 3.212 0 0 1 -1.264.2z" fill="#fff" fill-rule="evenodd" transform="translate(-356.5 -1215.03)"/></svg>