<svg height="62.687" viewBox="0 0 6.938 62.687" width="6.938" xmlns="http://www.w3.org/2000/svg"><path d="m49.474 397.572h-4.22a1.119 1.119 0 0 1 -.675-.145.735.735 0 0 1 -.2-.545 1.35 1.35 0 0 0 -.43-.05q.03.51.03 1.21 0 .609-.03 1.21a1.38 1.38 0 0 0 .43-.05.732.732 0 0 1 .2-.545 1.112 1.112 0 0 1 .675-.145h4.22a1.112 1.112 0 0 1 .675.145.733.733 0 0 1 .2.545 1.379 1.379 0 0 0 .43.05q-.03-.6-.03-1.21 0-.66.03-1.21a1.349 1.349 0 0 0 -.43.05.736.736 0 0 1 -.2.545 1.119 1.119 0 0 1 -.675.145zm1.3 10.17q-.03-.55-.03-2.57 0-1.99.03-2.55a9.323 9.323 0 0 1 -1.6-.16.97.97 0 0 0 -.09.48 3.293 3.293 0 0 1 .685.185.817.817 0 0 1 .39.355 1.427 1.427 0 0 1 .145.71v.51h-5.05a1.615 1.615 0 0 1 -.52-.065.427.427 0 0 1 -.255-.235 1.525 1.525 0 0 1 -.095-.5 1.35 1.35 0 0 0 -.43-.05q.03.56.03 1.31 0 .669-.03 1.31a1.38 1.38 0 0 0 .43-.05 1.469 1.469 0 0 1 .095-.5.408.408 0 0 1 .25-.225 1.722 1.722 0 0 1 .525-.06h5.046v.53a1.056 1.056 0 0 1 -.31.84 1.428 1.428 0 0 1 -.91.29 1.066 1.066 0 0 0 .09.5q.84-.071 1.24-.07zm-6.88 6.37a3.2 3.2 0 0 0 1.715 2.888 3.961 3.961 0 0 0 3.57 0 3.064 3.064 0 0 0 1.22-1.18 3.356 3.356 0 0 0 .435-1.7 3.263 3.263 0 0 0 -.44-1.675 3.158 3.158 0 0 0 -1.225-1.19 3.621 3.621 0 0 0 -1.785-.435 3.8 3.8 0 0 0 -1.785.415 3.116 3.116 0 0 0 -1.25 1.165 3.248 3.248 0 0 0 -.455 1.72zm.49.2a2.028 2.028 0 0 1 .455-1.32 2.856 2.856 0 0 1 1.2-.855 4.352 4.352 0 0 1 1.61-.3 3.506 3.506 0 0 1 1.41.265 2.232 2.232 0 0 1 .95.735 1.762 1.762 0 0 1 .34 1.06 2.06 2.06 0 0 1 -.43 1.27 2.881 2.881 0 0 1 -1.17.895 4.021 4.021 0 0 1 -1.63.325 3.739 3.739 0 0 1 -1.4-.25 2.258 2.258 0 0 1 -.985-.725 1.779 1.779 0 0 1 -.36-1.1zm6.36 16.32c0-.34.01-.654.03-.94a2.724 2.724 0 0 0 -.43.05.621.621 0 0 1 -.13.42.746.746 0 0 1 -.43.21 4.673 4.673 0 0 1 -.86.06h-3.31l5.16-3.89a6.24 6.24 0 0 1 -.03-.67c0-.294.01-.54.03-.74a1.594 1.594 0 0 0 -.43.05 1.148 1.148 0 0 1 -.08.385.849.849 0 0 1 -.23.265l-.05.04h-4.13a5 5 0 0 1 -.89-.06.784.784 0 0 1 -.445-.21.606.606 0 0 1 -.135-.42 1.407 1.407 0 0 0 -.43-.05q.03.379.03 1 0 .54-.03.99a1.439 1.439 0 0 0 .43-.05.606.606 0 0 1 .135-.42.784.784 0 0 1 .445-.21 5 5 0 0 1 .89-.06h3.46l-5.39 4.13a1.257 1.257 0 0 0 .06.43h4.94a5.069 5.069 0 0 1 .855.055.831.831 0 0 1 .435.18.468.468 0 0 1 .13.355 1.635 1.635 0 0 0 .43.05c-.02-.274-.03-.59-.03-.95zm-6.85 7.409a3.2 3.2 0 0 0 1.715 2.885 3.961 3.961 0 0 0 3.57 0 3.051 3.051 0 0 0 1.22-1.18 3.35 3.35 0 0 0 .435-1.7 3.269 3.269 0 0 0 -.44-1.675 3.165 3.165 0 0 0 -1.225-1.19 3.621 3.621 0 0 0 -1.785-.435 3.807 3.807 0 0 0 -1.785.415 3.123 3.123 0 0 0 -1.25 1.165 3.251 3.251 0 0 0 -.455 1.72zm.49.2a2.031 2.031 0 0 1 .455-1.32 2.873 2.873 0 0 1 1.2-.855 4.372 4.372 0 0 1 1.61-.295 3.523 3.523 0 0 1 1.41.265 2.247 2.247 0 0 1 .95.735 1.767 1.767 0 0 1 .34 1.06 2.058 2.058 0 0 1 -.43 1.27 2.873 2.873 0 0 1 -1.17.895 4 4 0 0 1 -1.63.325 3.719 3.719 0 0 1 -1.4-.25 2.243 2.243 0 0 1 -.985-.725 1.777 1.777 0 0 1 -.36-1.105zm1.31 11.02a3.1 3.1 0 0 1 -.73-.345 1.122 1.122 0 0 1 -.39-.545 3.121 3.121 0 0 1 -.14-1.06v-.06a1.587 1.587 0 0 1 .08-.575.451.451 0 0 1 .275-.265 1.816 1.816 0 0 1 .575-.07h1.81v.63a1.438 1.438 0 0 1 -.185.855.956.956 0 0 1 -.7.275 1.829 1.829 0 0 0 -.05.46q.34-.019 1.16-.02.75 0 1.09.02a1.709 1.709 0 0 0 -.07-.48.76.76 0 0 1 -.645-.245 1.605 1.605 0 0 1 -.165-.865v-.63h2.74v.93a1.718 1.718 0 0 1 -.355 1.235 1.424 1.424 0 0 1 -.915.405.711.711 0 0 0 .12.45 13.51 13.51 0 0 1 1.58-.21q-.03-.99-.03-2.81 0-1.089.03-1.68a1.379 1.379 0 0 0 -.43.05.733.733 0 0 1 -.2.545 1.112 1.112 0 0 1 -.675.145h-4.11a2.235 2.235 0 0 1 -.6-.06.446.446 0 0 1 -.28-.2 1.053 1.053 0 0 1 -.1-.425 1.38 1.38 0 0 0 -.43-.05q.03.75.03 2.59 0 1.361-.02 2.14a8.8 8.8 0 0 1 1.49.31 1.051 1.051 0 0 0 .24-.44zm5.05 9.31q0-.51.03-.94a2.851 2.851 0 0 0 -.43.05.621.621 0 0 1 -.13.42.746.746 0 0 1 -.43.21 4.673 4.673 0 0 1 -.86.06h-3.31l5.16-3.89a6.227 6.227 0 0 1 -.03-.67q0-.44.03-.74a1.635 1.635 0 0 0 -.43.05 1.136 1.136 0 0 1 -.08.385.828.828 0 0 1 -.23.265l-.05.04h-4.13a5 5 0 0 1 -.89-.06.784.784 0 0 1 -.445-.21.606.606 0 0 1 -.135-.42 1.439 1.439 0 0 0 -.43-.05q.03.381.03 1 0 .54-.03.99a1.407 1.407 0 0 0 .43-.05.606.606 0 0 1 .135-.42.784.784 0 0 1 .445-.21 5 5 0 0 1 .89-.06h3.46l-5.39 4.13a1.253 1.253 0 0 0 .06.43h4.94a5.178 5.178 0 0 1 .855.055.848.848 0 0 1 .435.18.471.471 0 0 1 .13.355 1.594 1.594 0 0 0 .43.05q-.03-.41-.03-.95z" fill-rule="evenodd" transform="translate(-43.906 -396.844)"/></svg>