<svg height="11.09" viewBox="0 0 78.81 11.09" width="78.81" xmlns="http://www.w3.org/2000/svg"><path d="m1376.94 1226.14a4.812 4.812 0 0 0 2.13-.42 2.918 2.918 0 0 0 1.29-1.12 3.057 3.057 0 0 0 .42-1.6 2.706 2.706 0 0 0 -.42-1.54 3.45 3.45 0 0 0 -1.03-1.02 15.554 15.554 0 0 0 -1.59-.85c-.53-.25-.95-.47-1.26-.65a2.855 2.855 0 0 1 -.78-.68 1.534 1.534 0 0 1 -.31-.96 1.308 1.308 0 0 1 .44-1.04 1.857 1.857 0 0 1 1.21-.36 1.538 1.538 0 0 1 1.2.48 3.615 3.615 0 0 1 .66 1.76 2.526 2.526 0 0 0 1.16-.21 18.389 18.389 0 0 1 -.09-2.19 4.206 4.206 0 0 0 -1.25-.51 6.616 6.616 0 0 0 -1.6-.2 3.673 3.673 0 0 0 -2.48.79 2.708 2.708 0 0 0 -.93 2.2 2.924 2.924 0 0 0 .43 1.64 3.408 3.408 0 0 0 1.03 1.04 10.625 10.625 0 0 0 1.58.84c.5.24.9.44 1.2.62a2.63 2.63 0 0 1 .75.65 1.477 1.477 0 0 1 .29.91 1.393 1.393 0 0 1 -.47 1.08 2.105 2.105 0 0 1 -1.43.42 2.028 2.028 0 0 1 -1.67-.62 3.445 3.445 0 0 1 -.59-1.98 4.782 4.782 0 0 0 -1.17.12 13.958 13.958 0 0 1 -.16 2.4 8.631 8.631 0 0 0 1.67.75 6.1 6.1 0 0 0 1.77.25zm14.13 0a6.1 6.1 0 0 0 2.13-.35 6.59 6.59 0 0 0 1.81-1.05 1.535 1.535 0 0 0 -.13-.32.973.973 0 0 0 -.21-.27 5.949 5.949 0 0 1 -1.41.64 4.914 4.914 0 0 1 -1.44.23 3.411 3.411 0 0 1 -2.06-.64 3.99 3.99 0 0 1 -1.31-1.76 6.749 6.749 0 0 1 -.45-2.53 5.275 5.275 0 0 1 .83-3.03 2.876 2.876 0 0 1 2.55-1.21 2.079 2.079 0 0 1 1.6.58 3.1 3.1 0 0 1 .59 2.07 2.5 2.5 0 0 0 1.05-.16 13.475 13.475 0 0 1 .18-2.48 9.842 9.842 0 0 0 -1.74-.62 7.522 7.522 0 0 0 -1.8-.21 5.72 5.72 0 0 0 -2.65.63 4.805 4.805 0 0 0 -1.99 1.86 5.709 5.709 0 0 0 -.75 3 6.238 6.238 0 0 0 .66 2.91 4.726 4.726 0 0 0 1.84 1.99 5.1 5.1 0 0 0 2.7.72zm17.3-2.4c-.48-.85-.85-1.44-1.1-1.8a5.754 5.754 0 0 0 -.93-1 3.694 3.694 0 0 0 1.89-1.09 2.788 2.788 0 0 0 .7-1.94 2.524 2.524 0 0 0 -.92-2.01 4.169 4.169 0 0 0 -2.71-.77q-.57 0-1.59.03l-1.26.02c-1.04 0-1.75-.02-2.15-.05a3.564 3.564 0 0 0 .08.83 1.612 1.612 0 0 1 .68.14.717.717 0 0 1 .33.44 3.117 3.117 0 0 1 .1.92v6.23a3 3 0 0 1 -.1.91.691.691 0 0 1 -.32.43 1.526 1.526 0 0 1 -.67.16 2.976 2.976 0 0 0 -.1.85c.55-.03 1.24-.05 2.08-.05.98 0 1.7.02 2.15.05a3.343 3.343 0 0 0 -.08-.85 1.337 1.337 0 0 1 -.61-.14.753.753 0 0 1 -.3-.45 3.789 3.789 0 0 1 -.08-.94v-2.37l.46.01.5-.01a7.582 7.582 0 0 1 .96 1.12 16.165 16.165 0 0 1 .81 1.42c.04.1.17.36.37.79s.47.94.8 1.52a19.7 19.7 0 0 1 2.82-.15 3.191 3.191 0 0 0 .09-.85 2.36 2.36 0 0 1 -.81-.16 1.318 1.318 0 0 1 -.54-.4 5.826 5.826 0 0 1 -.55-.84zm-4.91-3.35v-4.29a4.746 4.746 0 0 1 1.04-.12 2.5 2.5 0 0 1 1.78.56 2.124 2.124 0 0 1 .58 1.6 2.043 2.043 0 0 1 -.77 1.72 3.218 3.218 0 0 1 -1.99.58 5.581 5.581 0 0 1 -.64-.05zm16.89 5.75a5.311 5.311 0 0 0 2.79-.74 5.108 5.108 0 0 0 1.89-2.02 6.16 6.16 0 0 0 .68-2.89 5.831 5.831 0 0 0 -.68-2.85 4.873 4.873 0 0 0 -1.9-1.92 5.566 5.566 0 0 0 -2.78-.69 5.336 5.336 0 0 0 -2.73.7 4.974 4.974 0 0 0 -1.92 1.94 5.844 5.844 0 0 0 -.69 2.88 6.1 6.1 0 0 0 .66 2.87 4.943 4.943 0 0 0 1.87 2 5.39 5.39 0 0 0 2.81.72zm.29-.92a2.757 2.757 0 0 1 -1.9-.7 4.384 4.384 0 0 1 -1.22-1.86 7.4 7.4 0 0 1 -.42-2.52 6.09 6.09 0 0 1 .38-2.23 3.371 3.371 0 0 1 1.05-1.48 2.454 2.454 0 0 1 1.52-.52 2.822 2.822 0 0 1 1.84.67 4.315 4.315 0 0 1 1.27 1.8 6.718 6.718 0 0 1 .46 2.51 6.48 6.48 0 0 1 -.36 2.23 3.477 3.477 0 0 1 -1.04 1.54 2.335 2.335 0 0 1 -1.58.56zm14.96-.08h-.14a2.232 2.232 0 0 1 -.88-.13.755.755 0 0 1 -.4-.47 3.187 3.187 0 0 1 -.12-1v-6.04a3.39 3.39 0 0 1 .1-.92.686.686 0 0 1 .32-.44 1.526 1.526 0 0 1 .67-.16 2.614 2.614 0 0 0 .1-.85c-.64.03-1.37.05-2.18.05-.72 0-1.44-.02-2.16-.05a3.633 3.633 0 0 0 .08.85 1.576 1.576 0 0 1 .68.16.67.67 0 0 1 .33.43 3.246 3.246 0 0 1 .1.89v6.1a4.1 4.1 0 0 1 -.1 1 .681.681 0 0 1 -.33.47 1.576 1.576 0 0 1 -.68.16 2.855 2.855 0 0 0 -.09.85c.78-.03 2.24-.05 4.36-.05 1.33 0 2.46.01 3.4.03a12.5 12.5 0 0 1 .49-2.51 1.718 1.718 0 0 0 -.96-.43 4.787 4.787 0 0 1 -.55 1.23 1.714 1.714 0 0 1 -.78.63 3.2 3.2 0 0 1 -1.26.2zm13.17 0h-.15a2.21 2.21 0 0 1 -.87-.13.77.77 0 0 1 -.41-.47 3.582 3.582 0 0 1 -.11-1v-6.04a3.029 3.029 0 0 1 .1-.92.686.686 0 0 1 .32-.44 1.526 1.526 0 0 1 .67-.16 2.994 2.994 0 0 0 .09-.85c-.64.03-1.36.05-2.17.05-.73 0-1.45-.02-2.16-.05a3.633 3.633 0 0 0 .08.85 1.616 1.616 0 0 1 .68.16.74.74 0 0 1 .33.43 3.32 3.32 0 0 1 .09.89v6.1a4.193 4.193 0 0 1 -.09 1 .747.747 0 0 1 -.33.47 1.616 1.616 0 0 1 -.68.16 2.5 2.5 0 0 0 -.1.85c.79-.03 2.25-.05 4.37-.05q1.98 0 3.39.03a13.156 13.156 0 0 1 .5-2.51 1.718 1.718 0 0 0 -.96-.43 5.157 5.157 0 0 1 -.55 1.23 1.714 1.714 0 0 1 -.78.63 3.2 3.2 0 0 1 -1.26.2z" fill="#111" fill-rule="evenodd" transform="translate(-1373.5 -1215.03)"/></svg>