<svg height="5.5" viewBox="0 0 28.75 5.5" width="28.75" xmlns="http://www.w3.org/2000/svg"><path d="m36.374 69.937a.557.557 0 0 1 -.3-.1.585.585 0 0 1 -.176-.3 3.407 3.407 0 0 1 -.1-.612l-.298-2.94a1.9 1.9 0 0 1 -.008-.2.644.644 0 0 1 .14-.472.568.568 0 0 1 .412-.136 1.357 1.357 0 0 0 .04-.344q-.32.024-.608.024-.352 0-.624-.024l-1.742 4.424-2-4.424q-.312.024-.608.024-.368 0-.608-.024a1.186 1.186 0 0 0 .04.344.572.572 0 0 1 .416.128.611.611 0 0 1 .128.44 1.858 1.858 0 0 1 -.008.192l-.256 2.848a4.405 4.405 0 0 1 -.116.724.594.594 0 0 1 -.188.324.707.707 0 0 1 -.344.112 1.237 1.237 0 0 0 -.04.344q.328-.024.8-.024t.856.024a1.245 1.245 0 0 0 -.04-.344.607.607 0 0 1 -.42-.164.779.779 0 0 1 -.124-.508q0-.176.024-.416l.256-2.568 1.864 4.048a.864.864 0 0 0 .328-.056l1.656-4 .288 2.744q.024.24.024.4a.543.543 0 0 1 -.1.384.7.7 0 0 1 -.408.136 1.141 1.141 0 0 0 -.048.344q.408-.024.976-.024.592 0 .96.024a1.281 1.281 0 0 0 -.04-.352zm6.368-1.04a2.516 2.516 0 0 1 -.276.584.9.9 0 0 1 -.436.312 2.5 2.5 0 0 1 -.848.112h-.048a1.269 1.269 0 0 1 -.46-.064.36.36 0 0 1 -.212-.22 1.435 1.435 0 0 1 -.056-.46v-1.448h.5a1.152 1.152 0 0 1 .684.148.769.769 0 0 1 .22.564 1.462 1.462 0 0 0 .368.04q-.016-.272-.016-.928 0-.6.016-.872a1.367 1.367 0 0 0 -.384.056.611.611 0 0 1 -.2.516 1.286 1.286 0 0 1 -.692.132h-.5v-2.192h.748a1.376 1.376 0 0 1 .988.284 1.143 1.143 0 0 1 .324.732.569.569 0 0 0 .36-.1 10.635 10.635 0 0 1 -.168-1.264q-.792.024-2.248.024-.872 0-1.344-.024a1.091 1.091 0 0 0 .04.344.588.588 0 0 1 .436.156.892.892 0 0 1 .116.54v3.288a1.789 1.789 0 0 1 -.048.48.358.358 0 0 1 -.164.224.848.848 0 0 1 -.34.08 1.091 1.091 0 0 0 -.04.344q.6-.024 2.072-.024 1.088 0 1.712.016a6.98 6.98 0 0 1 .248-1.192.845.845 0 0 0 -.352-.192zm7.448-4.04q-.408 0-.752-.024a2.243 2.243 0 0 0 .04.344.5.5 0 0 1 .336.1.6.6 0 0 1 .168.344 3.738 3.738 0 0 1 .048.688v2.648l-3.112-4.128a4.986 4.986 0 0 1 -.536.024q-.352 0-.592-.024a1.3 1.3 0 0 0 .04.344.913.913 0 0 1 .308.064.67.67 0 0 1 .212.184l.032.04v3.3a4 4 0 0 1 -.048.712.627.627 0 0 1 -.168.356.485.485 0 0 1 -.336.108 1.141 1.141 0 0 0 -.04.344q.3-.024.8-.024.432 0 .792.024a1.141 1.141 0 0 0 -.04-.344.485.485 0 0 1 -.336-.108.627.627 0 0 1 -.168-.356 4 4 0 0 1 -.048-.712v-2.761l3.3 4.312a1 1 0 0 0 .344-.048v-3.951a4.087 4.087 0 0 1 .044-.684.673.673 0 0 1 .144-.348.376.376 0 0 1 .284-.1 1.3 1.3 0 0 0 .04-.344q-.328.024-.76.024zm7.568 3.256v-1.92a3.454 3.454 0 0 1 .04-.6.518.518 0 0 1 .14-.3.534.534 0 0 1 .292-.112 2.113 2.113 0 0 0 .04-.344q-.312.024-.76.024-.48 0-.752-.024a1.783 1.783 0 0 0 .04.344.682.682 0 0 1 .356.116.476.476 0 0 1 .156.292 3.369 3.369 0 0 1 .04.608v1.984a4.21 4.21 0 0 1 -.076.932 1.044 1.044 0 0 1 -.268.5.951.951 0 0 1 -.388.228 1.5 1.5 0 0 1 -.46.076 1.208 1.208 0 0 1 -1.052-.428 1.987 1.987 0 0 1 -.308-1.18v-2.436a1.669 1.669 0 0 1 .04-.436.283.283 0 0 1 .148-.184 1.163 1.163 0 0 1 .364-.076 1.3 1.3 0 0 0 .04-.344q-.36.024-.928.024-.608 0-.928-.024a1.3 1.3 0 0 0 .04.344.819.819 0 0 1 .3.08.3.3 0 0 1 .132.192 1.809 1.809 0 0 1 .036.424v2.544a2.051 2.051 0 0 0 .444 1.448 2.019 2.019 0 0 0 1.516.472 1.753 1.753 0 0 0 1.3-.456 1.367 1.367 0 0 0 .36-.656 4.943 4.943 0 0 0 .1-1.112z" fill-rule="evenodd" transform="translate(-29.531 -64.844)"/></svg>